<?xml version="1.0" standalone="no"?><!DOCTYPE svg PUBLIC "-//W3C//DTD SVG 1.1//EN" "http://www.w3.org/Graphics/SVG/1.1/DTD/svg11.dtd"><svg t="1491047369832" class="icon" style="" viewBox="0 0 1024 1024" version="1.1" xmlns="http://www.w3.org/2000/svg" p-id="2644" xmlns:xlink="http://www.w3.org/1999/xlink" width="200" height="200"><defs><style type="text/css"></style></defs><path d="M510.551961 957.023586c-245.732738 0-445.647064-200.037942-445.647064-445.924095 0-245.911736 199.914326-445.985494 445.647064-445.985494 245.741948 0 445.669578 200.073758 445.669578 445.985494C956.221539 756.98462 756.293909 957.023586 510.551961 957.023586zM510.551961 124.880195c-212.795222 0-385.922361 173.252903-385.922361 386.219295 0 212.926484 173.128162 386.16199 385.922361 386.16199 212.807502 0 385.944875-173.235506 385.944875-386.16199C896.496836 298.133098 723.359463 124.880195 510.551961 124.880195z" p-id="2645"></path><path d="M554.643982 255.161401l-29.14703 384.250454L493.43133 639.411855l-26.9499-384.250454L554.643982 255.161401zM549.54054 766.993578l-77.955668 0 0-80.201623 77.955668 0L549.54054 766.993578z" p-id="2646"></path></svg>