<?xml version="1.0" standalone="no"?><!DOCTYPE svg PUBLIC "-//W3C//DTD SVG 1.1//EN" "http://www.w3.org/Graphics/SVG/1.1/DTD/svg11.dtd"><svg t="1491047364996" class="icon" style="" viewBox="0 0 1095 1024" version="1.1" xmlns="http://www.w3.org/2000/svg" p-id="2536" xmlns:xlink="http://www.w3.org/1999/xlink" width="213.8671875" height="200"><defs><style type="text/css"></style></defs><path d="M704.413 297.863c3.103-6.207 3.103-18.621 0-27.931-6.207-12.413-21.724-15.518-43.447-15.518h-381.724c-31.034 0-46.553 15.518-46.553 31.034 0 9.31 6.207 18.621 15.518 24.827 9.31 3.103 18.621 9.31 31.034 9.31h381.724c21.724 0 37.241-9.31 43.447-21.724v0 0zM232.69 415.793c0 9.31 6.207 21.724 15.518 24.828 9.31 3.103 18.621 6.207 31.034 6.207h294.827l6.207-6.207c9.31-9.31 18.621-18.621 27.931-27.931l37.241-31.034h-366.207c-31.034 3.103-46.553 18.621-46.553 34.137v0 0zM868.897 387.863c9.31 3.103 18.621 9.31 27.931 15.517l27.931 15.517v-288.621c0-52.759-46.553-68.276-77.587-68.276v0h-695.173c-31.034 0-90 18.621-90 68.276v763.447c0 49.656 58.966 68.276 90 68.276v0h695.173c55.863 0 77.587-40.344 77.587-68.276v-68.276l-40.344-34.137-27.931 12.413v90c0 0 0 3.103-3.103 6.207s-3.103 0-9.31 0h-692.069c-3.103 0-21.724 6.207-21.724-6.207v-763.447c0-3.103 9.31-3.103 21.724-3.103h695.172c3.103 0 12.413-6.207 12.413 3.103v254.482l9.31 3.103zM1020.966 782l-117.931-111.724c18.621-27.931 27.931-58.966 27.931-93.103 0-99.31-83.793-176.897-189.31-176.897-105.517 0-189.31 80.69-189.31 176.897 0 99.31 83.793 176.897 189.31 176.897 46.552 0 86.897-15.517 117.931-40.344l114.828 108.621c6.207 6.207 15.518 6.207 21.724 0l21.724-21.724c6.207-3.103 6.207-12.413 3.103-18.621v0 0 0zM605.103 580.276c0-71.379 62.069-130.344 136.553-130.344 74.482 0 136.552 58.966 136.552 130.344s-62.069 130.344-136.552 130.344c-77.587-3.103-136.553-58.966-136.553-130.344v0 0 0zM605.103 580.276z" p-id="2537"></path></svg>